# xmcd
#
# Track frame offsets:
#	150
#	18169
#	49013
#	71739
#	95075
#	114928
#	133235
#	172126
#	199240
#	229803
#	261378
#	284790
#	309519
#
# Disc length: 4310 seconds
#
# Revision: 1
# Processed by: cddbd v1.5.2PL0 Copyright (c) Steve Scherf et al.
# Submitted via: EasyCDDAExtractor 12.0.5.1
#
DISCID=c910d40d
DTITLE=Days of Triumph - rev. ltd.
DYEAR=2010
DGENRE=Alternative
TTITLE0=One
TTITLE1=The Fallen
TTITLE2=Your Emanation
TTITLE3=Freak
TTITLE4=Inside
TTITLE5=Flood
TTITLE6=Mosquito
TTITLE7=Sleepers
TTITLE8=Another World
TTITLE9=Winter
TTITLE10=Rain
TTITLE11=Stay Awake
TTITLE12=Rose
EXTD=
EXTT0=
EXTT1=
EXTT2=
EXTT3=
EXTT4=
EXTT5=
EXTT6=
EXTT7=
EXTT8=
EXTT9=
EXTT10=
EXTT11=
EXTT12=
PLAYORDER=
